

<svg width="17" height="16" viewBox="0 0 17 16" fill="none" xmlns="http://www.w3.org/2000/svg">
<g id="Frame" clip-path="url(#clip0_1_63)">
<path id="Vector" d="M15.9348 13.8344L12.8192 10.7188C12.6786 10.5781 12.4879 10.5 12.2879 10.5H11.7786C12.6411 9.39688 13.1536 8.00937 13.1536 6.5C13.1536 2.90937 10.2442 0 6.65356 0C3.06294 0 0.153564 2.90937 0.153564 6.5C0.153564 10.0906 3.06294 13 6.65356 13C8.16294 13 9.55044 12.4875 10.6536 11.625V12.1344C10.6536 12.3344 10.7317 12.525 10.8723 12.6656L13.9879 15.7812C14.2817 16.075 14.7567 16.075 15.0473 15.7812L15.9317 14.8969C16.2254 14.6031 16.2254 14.1281 15.9348 13.8344ZM6.65356 10.5C4.44419 10.5 2.65356 8.7125 2.65356 6.5C2.65356 4.29063 4.44106 2.5 6.65356 2.5C8.86294 2.5 10.6536 4.2875 10.6536 6.5C10.6536 8.70938 8.86606 10.5 6.65356 10.5Z" fill="white"/>
</g>
<defs>
<clipPath id="clip0_1_63">
<rect width="16" height="16" fill="white" transform="translate(0.153564)"/>
</clipPath>
</defs>
</svg>
